<?xml version="1.0" encoding="UTF-8"?>
<svg version="1.1" xmlns="http://www.w3.org/2000/svg" width="192" height="192">
<path d="M0 0 C63.36 0 126.72 0 192 0 C192 63.36 192 126.72 192 192 C128.64 192 65.28 192 0 192 C0 128.64 0 65.28 0 0 Z " fill="#FEFEFE" transform="translate(0,0)"/>
<path d="M0 0 C9.9 0 19.8 0 30 0 C30 1.98 30 3.96 30 6 C29.67 6.33 29.34 6.66 29 7 C26.69 7 24.38 7 22 7 C22.33 16.24 22.66 25.48 23 35 C27.29588295 32.42247023 30.01046809 30.23533203 33.484375 26.74609375 C33.98543762 26.24457291 34.48650024 25.74305206 35.00274658 25.22633362 C36.05385466 24.1722202 37.1025473 23.11569323 38.14892578 22.05688477 C39.75368088 20.43377702 41.36639132 18.81891048 42.98046875 17.20507812 C48.06552127 12.53155815 48.06552127 12.53155815 52 7 C49.69 6.67 47.38 6.34 45 6 C45 4.02 45 2.04 45 0 C53.91 0 62.82 0 72 0 C72 1.98 72 3.96 72 6 C70.7625 6.268125 69.525 6.53625 68.25 6.8125 C61.78057075 8.98243337 57.45634355 13.68023652 52.69580078 18.35302734 C49.60272009 21.35704726 46.41819916 24.26319453 43.25 27.1875 C42.04634236 28.30541636 40.84317017 29.42385578 39.640625 30.54296875 C38.33351563 31.75919922 38.33351563 31.75919922 37 33 C41.21738643 39.02483775 45.99224261 44.29256346 51.02563477 49.62866211 C55.30687586 54.19070063 59.30187637 58.89311611 63.1953125 63.79296875 C66.70378782 68.08363662 68.33069422 69.37007714 74 70 C74 71.98 74 73.96 74 76 C63.11 76 52.22 76 41 76 C41 74.02 41 72.04 41 70 C43.31 70 45.62 70 48 70 C45.00786613 65.05647448 41.35444297 60.98675491 37.4453125 56.7421875 C34.12722325 53.02126314 31.08374895 49.10148088 28.04296875 45.15234375 C26.00673929 42.62154435 26.00673929 42.62154435 22 42 C22.33 50.91 22.66 59.82 23 69 C24.98 69.33 26.96 69.66 29 70 C29 71.98 29 73.96 29 76 C19.43 76 9.86 76 0 76 C0 74.02 0 72.04 0 70 C2.64 69.67 5.28 69.34 8 69 C8 48.54 8 28.08 8 7 C5.36 6.67 2.72 6.34 0 6 C0 4.02 0 2.04 0 0 Z " fill="#0A0A0A" transform="translate(90,58)"/>
<path d="M0 0 C0.495 8.415 0.495 8.415 1 17 C-1.31 17 -3.62 17 -6 17 C-6.14695313 16.30132812 -6.29390625 15.60265625 -6.4453125 14.8828125 C-7.64841532 9.25877497 -7.64841532 9.25877497 -11.5 5.375 C-20.65126846 4.12936786 -20.65126846 4.12936786 -29.125 6.875 C-31.5734674 9.64992972 -31.96678834 10.55994549 -32.25 14.3125 C-31.9755142 18.36116559 -31.5408466 19.88541384 -29 23 C-24.20914506 26.68019308 -19.3823598 29.47735724 -13.9375 32.0625 C1.77910325 39.57137856 1.77910325 39.57137856 5 47 C6.04803774 53.10595899 5.53627999 58.82581707 2.38671875 64.21875 C-2.17799189 70.08215296 -8.72209759 73.76803643 -16 75 C-25.82892362 75.64035387 -35.41805043 75.39343621 -44.75 72 C-47 70 -47 70 -47.39575195 68.06958008 C-47.49380828 65.6321431 -47.43497027 63.24871639 -47.3125 60.8125 C-47.28994141 59.96751953 -47.26738281 59.12253906 -47.24414062 58.25195312 C-47.18524963 56.16721202 -47.09556798 54.08338196 -47 52 C-44.69 52 -42.38 52 -40 52 C-39.74605469 52.84304687 -39.49210937 53.68609375 -39.23046875 54.5546875 C-38.88628906 55.65039062 -38.54210938 56.74609375 -38.1875 57.875 C-37.85105469 58.96554688 -37.51460937 60.05609375 -37.16796875 61.1796875 C-36.19339495 64.27298725 -36.19339495 64.27298725 -33 66 C-26.90600368 67.48634057 -19.86374737 68.19322807 -14 65.75 C-10.87905122 63.01916981 -10.12517337 61.17662968 -9.6875 57.0625 C-10.05063554 53.50377173 -10.92830277 51.89401565 -13 49 C-15.20366957 47.36834258 -15.20366957 47.36834258 -17.8125 46.125 C-18.78316406 45.6196875 -19.75382812 45.114375 -20.75390625 44.59375 C-23.01871778 43.48178477 -25.29886073 42.40074325 -27.58984375 41.34375 C-36.18019899 37.34453491 -43.25599825 33.08771335 -47 24 C-47.94263639 18.24447974 -47.65963558 13.24522596 -44.625 8.1875 C-40.62584488 2.89645629 -35.03060028 -0.91331855 -28.609375 -2.64453125 C-19.5825923 -3.8742277 -8.3630541 -4.18152705 0 0 Z " fill="#090909" transform="translate(75,60)"/>
<path d="M0 0 C0.33 0.66 0.66 1.32 1 2 C1.66 2 2.32 2 3 2 C3 2.99 3 3.98 3 5 C3.99 5.33 4.98 5.66 6 6 C6 6.66 6 7.32 6 8 C6.99 8 7.98 8 9 8 C9 8.66 9 9.32 9 10 C9.66 10.33 10.32 10.66 11 11 C7.37 11 3.74 11 0 11 C0 7.37 0 3.74 0 0 Z " fill="#000000" transform="translate(0,181)"/>
<path d="M0 0 C0.33 0 0.66 0 1 0 C1 3.63 1 7.26 1 11 C-2.63 11 -6.26 11 -10 11 C-9.34 10.67 -8.68 10.34 -8 10 C-8 9.34 -8 8.68 -8 8 C-7.01 8 -6.02 8 -5 8 C-4.67 7.01 -4.34 6.02 -4 5 C-3.34 5 -2.68 5 -2 5 C-2 4.01 -2 3.02 -2 2 C-1.34 2 -0.68 2 0 2 C0 1.34 0 0.68 0 0 Z " fill="#000000" transform="translate(191,181)"/>
<path d="M0 0 C3.63 0 7.26 0 11 0 C11 3.63 11 7.26 11 11 C10.67 10.34 10.34 9.68 10 9 C9.34 9 8.68 9 8 9 C8 8.01 8 7.02 8 6 C7.01 5.67 6.02 5.34 5 5 C5 4.34 5 3.68 5 3 C2.525 2.01 2.525 2.01 0 1 C0 0.67 0 0.34 0 0 Z " fill="#000000" transform="translate(181,0)"/>
<path d="M0 0 C3.63 0 7.26 0 11 0 C9.515 1.485 9.515 1.485 8 3 C7.34 3 6.68 3 6 3 C5.67 3.99 5.34 4.98 5 6 C4.34 6 3.68 6 3 6 C3 6.99 3 7.98 3 9 C2.34 9 1.68 9 1 9 C0.67 9.66 0.34 10.32 0 11 C0 7.37 0 3.74 0 0 Z " fill="#000000" transform="translate(0,0)"/>
</svg>
